<svg xmlns="http://www.w3.org/2000/svg" viewBox="0 0 50.2 31.7"><path d="M39.8 13.2h-5.6a.6.6 0 0 0-.3 0 57.1 57.1 0 0 1-5.4 4.2 49.3 49.3 0 0 1-8.4 4.3 33.7 33.7 0 0 1-5.6 1.8 19 19 0 0 1-3 .5H8.7a10.8 10.8 0 0 1-6.5-2.2A5.5 5.5 0 0 1 .1 18a6 6 0 0 1 1.4-4.8 13.2 13.2 0 0 1 3.4-2.9A20.7 20.7 0 0 1 11.3 8a19.9 19.9 0 0 1 3.3-.5h2.7a19 19 0 0 1 6.3 1.1 7 7 0 0 1 2.7 1.8 2.8 2.8 0 0 1 .7 1 .2.2 0 0 0 .1.1h5.2a.4.4 0 0 0 .3 0l4.1-4a83 83 0 0 0 5-5.3c0-.2.2-.3.3-.5h-2a3 3 0 0 1-.6 0 .6.6 0 0 1-.6-.5.8.8 0 0 1 .3-.8 1.4 1.4 0 0 1 .8-.2A10.2 10.2 0 0 1 42 0a7.6 7.6 0 0 1 3 .7 5.3 5.3 0 0 1 2.9 3.8 5.6 5.6 0 0 1-.8 4.1l-1.8 2.7v.2h4.3a1.1 1.1 0 0 1 .4 0 .5.5 0 0 1 .3.6 2.5 2.5 0 0 1 0 .6.5.5 0 0 1-.6.4h-5.4a.4.4 0 0 0-.3.2l-7 11-2.6 4.1-.5.9a2 2 0 0 0 0 .2c0 .2 0 .3.2.4a3.7 3.7 0 0 0 .6.2 5.8 5.8 0 0 0 2-.1 13.5 13.5 0 0 0 4.3-1.6.7.7 0 0 1 .6-.2.5.5 0 0 1 .4.4.8.8 0 0 1-.3.8 12.8 12.8 0 0 1-4.4 2 12.2 12.2 0 0 1-3 .3 3.7 3.7 0 0 1-3.2-2 3.1 3.1 0 0 1 0-2.6 11.3 11.3 0 0 1 1-1.6l7.7-12.2.1-.2zm-9.2-.1H27a.3.3 0 0 0-.2 0c0 .3-.2.4-.3.6a6 6 0 0 1-2.7 2.2 19 19 0 0 1-7.3 1.7 22.3 22.3 0 0 1-4.3-.2 10.5 10.5 0 0 1-2.4-.7 3.7 3.7 0 0 1-2-1.5 2 2 0 0 1 .5-2.6 3.7 3.7 0 0 1 2-.8c1.2-.2 2.3-.3 3.5-.3h11l-.3-.3a8.2 8.2 0 0 0-1.8-.6 23.4 23.4 0 0 0-5.2-.6h-2.9l-2.7.3a22.6 22.6 0 0 0-4.6 1.1 11.5 11.5 0 0 0-3.8 2.2 4.5 4.5 0 0 0-1.3 1.8 1.8 1.8 0 0 0 0 1.3 3.9 3.9 0 0 0 1.4 1.8 10 10 0 0 0 2.8 1.3 17.5 17.5 0 0 0 5 .7h3.3a19.4 19.4 0 0 0 3-.5 23.1 23.1 0 0 0 8.3-3.4 46.5 46.5 0 0 0 4.6-3.5zm5.2-1.7h4.8a.3.3 0 0 0 .3-.2l2.7-4.5a10.7 10.7 0 0 0 1.2-2.4 2.8 2.8 0 0 0 .1-1A1.5 1.5 0 0 0 44 2a.2.2 0 0 0-.1 0l-.3.5a52.8 52.8 0 0 1-7.2 8.3zM24.4 13h-8.2l-2.8.1-2.6.3a3.6 3.6 0 0 0-1.3.5c-.2.1-.2.2 0 .4a1 1 0 0 0 .2.2 7.6 7.6 0 0 0 .9.4 10.2 10.2 0 0 0 3 .4 25.9 25.9 0 0 0 3.4 0 21.7 21.7 0 0 0 3.9-.8 15.4 15.4 0 0 0 3.2-1.3z" fill="#c2c6c8"/></svg>